<svg xmlns="http://www.w3.org/2000/svg" version="1.1" xmlns:xlink="http://www.w3.org/1999/xlink" xmlns:svgjs="http://svgjs.dev/svgjs" width="1500" height="1500" viewBox="0 0 1500 1500"><rect width="1500" height="1500" fill="#000000"></rect><g transform="matrix(0.6666666666666666,0,0,0.6666666666666666,250,250)"><svg viewBox="0 0 280 280" data-background-color="#456417" preserveAspectRatio="xMidYMid meet" height="1500" width="1500" xmlns="http://www.w3.org/2000/svg" xmlns:xlink="http://www.w3.org/1999/xlink"><g id="tight-bounds" transform="matrix(1,0,0,1,0,0)"><svg viewBox="0 0 280 280" height="280" width="280"><g><svg viewBox="0 0 280 280" height="280" width="280"><g><svg viewBox="0 0 280 280" height="280" width="280"><g id="textblocktransform"><svg viewBox="0 0 280 280" height="280" width="280" id="textblock"><g><svg viewBox="0 0 280 280" height="280" width="280"><g transform="matrix(1,0,0,1,90.50252531694167,92.76796571619289)"><svg viewBox="0 0 98.99494936611666 94.4640685676142" height="94.4640685676142" width="98.99494936611666"><g id="icon-0"><svg xmlns="http://www.w3.org/2000/svg" xmlns:xlink="http://www.w3.org/1999/xlink" version="1.1" x="0" y="0" viewBox="0 2.289 99.99987504880269 95.423" enable-background="new 0 0 100 100" xml:space="preserve" height="94.4640685676142" width="98.99494936611666" class="icon-xg-0" data-fill-palette-color="accent" id="xg-0"><g fill="#243100" data-fill-palette-color="accent"><path d="M99.279 18.508L83.756 2.982c-0.923-0.924-2.558-0.924-3.48 0l-9.656 9.659c-0.756-2.6-3.13-4.516-5.968-4.516H6.243C2.8 8.126 0 10.928 0 14.37v46.522c0 3.443 2.8 6.243 6.243 6.243h10.016l-3.005 3.006c-0.01 0.009-0.019 0.021-0.029 0.029l-0.055 0.055c-0.078 0.077-0.138 0.164-0.202 0.248-0.079 0.102-0.147 0.207-0.209 0.32-0.054 0.1-0.107 0.199-0.146 0.304-0.012 0.031-0.033 0.058-0.043 0.09L4.807 94.471c-0.294 0.885-0.064 1.86 0.595 2.519 0.469 0.47 1.098 0.722 1.741 0.722 0.26 0 0.522-0.042 0.777-0.126l23.287-7.762c0.021-0.007 0.039-0.021 0.061-0.029 0.167-0.061 0.329-0.137 0.48-0.232 0.01-0.006 0.02-0.009 0.029-0.015 0.142-0.093 0.274-0.198 0.395-0.318L54.26 67.136h10.392c3.442 0 6.241-2.8 6.241-6.243V50.498l15.009-15.011c0.147-0.148 0.267-0.317 0.37-0.494l13.008-13.006C100.24 21.026 100.24 19.468 99.279 18.508zM65.971 60.893c0 0.729-0.592 1.321-1.319 1.321h-5.47l6.789-6.792V60.893zM68.494 21.848l4.443 4.442L22.833 76.408l-4.442-4.441L68.494 21.848zM4.921 60.893V14.37c0-0.729 0.592-1.321 1.321-1.321h58.409c0.728 0 1.319 0.592 1.319 1.321v2.948L21.174 62.214H6.243C5.514 62.214 4.921 61.621 4.921 60.893zM11.033 91.359l4.946-14.839 9.893 9.893L11.033 91.359zM66.693 47.738c0 0-0.002 0-0.002 0.002l-2.67 2.671-33.59 33.597-4.119-4.12L76.418 29.77l4.121 4.12L66.693 47.738zM84.1 30.205L72.055 18.166l9.961-9.962 12.043 12.043L84.1 30.205z" fill="#ffffff" data-fill-palette-color="accent"></path><path d="M22.885 27.229c0-0.652-0.259-1.277-0.721-1.74l-5.917-5.916c-0.961-0.959-2.519-0.96-3.48 0.002-0.961 0.96-0.961 2.519 0 3.48l4.176 4.174-4.176 4.176c-0.962 0.962-0.962 2.52 0 3.48 0.48 0.48 1.11 0.722 1.74 0.722 0.629 0 1.259-0.241 1.74-0.721l5.917-5.916C22.625 28.508 22.885 27.883 22.885 27.229z" fill="#ffffff" data-fill-palette-color="accent"></path><path d="M26.482 35.606h7.048c1.359 0 2.461-1.102 2.461-2.461 0-1.358-1.102-2.462-2.461-2.462h-7.048c-1.359 0-2.46 1.104-2.46 2.462C24.021 34.505 25.123 35.606 26.482 35.606z" fill="#ffffff" data-fill-palette-color="accent"></path></g></svg></g></svg></g><g id="text-0"><path d="M19.289 104.56v0c5.499 1.848 8.967 0.635 10.405-3.641v0c0.377-1.121 0.659-2.36 0.844-3.716 0.186-1.356 0.237-2.246 0.154-2.672v0l0.469-0.129c0.187 0.708 0.184 1.774-0.011 3.198-0.195 1.424-0.479 2.69-0.852 3.799-0.371 1.102-0.818 2.055-1.343 2.857-0.525 0.802-1.235 1.564-2.13 2.284-0.893 0.714-2.05 1.13-3.472 1.248-1.429 0.115-3.048-0.131-4.858-0.739v0c-3.358-1.129-5.639-2.856-6.843-5.184v0c-1.246-2.433-1.467-4.844-0.664-7.233 0.805-2.396 2.083-4.002 3.832-4.818 1.741-0.812 3.809-0.815 6.206-0.01v0c0.51 0.171 1.045 0.394 1.605 0.667v0l-4.581 13.63c0.265 0.118 0.679 0.271 1.239 0.459zM20.003 91.96v0c-1.912-0.643-3.614-0.747-5.107-0.313-1.487 0.436-2.475 1.381-2.964 2.834v0c-0.632 1.88-0.341 3.747 0.873 5.602v0c0.949 1.482 2.463 2.715 4.544 3.697v0l3.826-11.383c-0.272-0.12-0.663-0.265-1.172-0.437z" fill="#ffffff" data-fill-palette-color="primary"></path><path d="M40.801 76.321v0l-0.062 0.105c-0.253 2.659-0.957 4.97-2.111 6.934v0c-1.809 3.077-3.982 3.995-6.52 2.753v0c-0.176-0.072-0.333-0.149-0.472-0.231v0c-1.785-1.049-2.292-2.919-1.522-5.608v0c0.516-1.568 1.627-4.28 3.332-8.136v0l-3.051-1.794c-0.974-0.572-1.876-0.947-2.708-1.124-0.832-0.177-1.494-0.224-1.988-0.139-0.5 0.081-0.972 0.287-1.416 0.618v0c-0.559 0.42-1.038 0.969-1.437 1.647-0.402 0.684-0.688 1.568-0.858 2.654v0c-0.216 1.588-0.213 3.115 0.01 4.579v0l2.63 1.733-0.214 0.763-4.199-2.468 0.066-0.429c0.271-2.266 0.605-3.921 1.001-4.968 0.396-1.046 0.718-1.792 0.966-2.239 0.247-0.447 0.5-0.864 0.758-1.251 0.262-0.392 0.676-0.858 1.243-1.398 0.567-0.54 1.158-0.949 1.774-1.226 0.615-0.278 1.359-0.394 2.23-0.35 0.877 0.047 1.779 0.344 2.706 0.888v0l10.622 6.245c0.719 0.422 1.187 0.448 1.405 0.078v0l1.346-2.052 0.502 0.342c-0.578 1.407-1.165 2.618-1.761 3.632v0c-0.187 0.265-0.502 0.469-0.946 0.614-0.444 0.145-0.886 0.087-1.326-0.172zM38.439 82.407v0c1.005-1.71 1.47-3.881 1.396-6.513v0l-5.728-3.368c-1.925 3.54-3.005 5.841-3.24 6.904-0.235 1.063-0.144 1.943 0.273 2.64 0.417 0.697 0.926 1.223 1.529 1.577v0c0.116 0.068 0.232 0.136 0.348 0.205v0c1.24 0.636 2.318 0.786 3.233 0.45 0.915-0.336 1.645-0.967 2.189-1.894z" fill="#ffffff" data-fill-palette-color="primary"></path><path d="M52.359 62.826v0c0.107-0.121 0.203-0.251 0.29-0.389v0c0.905-1.067 1.348-2.23 1.331-3.492-0.013-1.266-0.632-2.439-1.857-3.52v0c-1.21-1.067-2.921-0.895-5.133 0.516v0c-0.915 0.591-1.851 1.164-2.807 1.719-0.956 0.555-1.956 0.861-3 0.917-1.054 0.057-2.034-0.315-2.942-1.115v0c-1.291-1.138-1.888-2.539-1.793-4.203 0.095-1.673 0.809-3.266 2.143-4.778v0c0.992-1.124 2.196-2.084 3.613-2.878v0l0.692-0.357 3.472 3.061-0.295 0.761-2.671-2.14c-1.959 0.352-3.283 0.918-3.973 1.7v0c-0.978 1.109-1.424 2.276-1.337 3.499 0.081 1.219 0.667 2.309 1.755 3.269v0c0.625 0.551 1.374 0.719 2.247 0.502 0.872-0.217 1.766-0.621 2.681-1.211 0.915-0.591 1.851-1.159 2.808-1.706 0.966-0.546 2.001-0.826 3.105-0.838 1.104-0.012 2.15 0.417 3.139 1.289v0c1.326 1.169 1.937 2.596 1.833 4.279-0.104 1.683-0.963 3.44-2.576 5.27-1.618 1.835-3.393 2.973-5.323 3.413v0l-3.471-3.061 0.268-0.731 2.697 2.11c0.773 0.18 1.674 0.073 2.702-0.32 1.032-0.398 1.833-0.92 2.402-1.566z" fill="#ffffff" data-fill-palette-color="primary"></path><path d="M78.95 53.555l-6.776 5.133-0.404-0.403 2.711-2.638c0.129-0.13 0.11-0.352-0.057-0.664v0l-4.012-7.567-1.065 0.799-16.617-10.943-0.056-0.008c-0.301-0.177-0.584-0.201-0.847-0.071v0l-1.549 0.96c-0.118-0.113-0.25-0.266-0.395-0.46v0l6.743-5.109c0.016 0.022 0.148 0.175 0.396 0.46v0l-2.372 2.082 15.714 11.016-4.638-18.669c-0.032-0.177-0.151-0.257-0.355-0.238-0.204 0.019-0.39 0.074-0.557 0.166v0l-1.492 0.968c-0.118-0.113-0.25-0.266-0.396-0.46v0l5.873-4.455c0.016 0.022 0.148 0.175 0.395 0.459v0l-2.646 2.439 4.735 20.411 4.311 8.301 2.928-1.945c0.269 0.269 0.411 0.414 0.428 0.436z" fill="#ffffff" data-fill-palette-color="primary"></path><path d="M96.924 43.231l-7.691 3.596-0.201-0.53 1.777-1.131c0.208-0.126 0.239-0.347 0.093-0.665v0l-11.516-24.937c-0.139-0.173-0.257-0.237-0.355-0.192v0l-2.259 0.954-0.2-0.529c1.43-0.927 2.426-1.52 2.988-1.78 0.561-0.259 1.029-0.305 1.403-0.137 0.374 0.168 0.664 0.412 0.87 0.731v0c1.019-1.833 2.393-3.149 4.12-3.946v0c1.66-0.767 3.456-0.974 5.389-0.623v0c1.04 0.201 2.074 0.786 3.099 1.757 1.028 0.976 1.937 2.319 2.726 4.028v0c1.497 3.241 1.816 6.048 0.957 8.421v0c-0.968 2.698-2.905 4.718-5.81 6.06v0c-0.848 0.392-1.765 0.741-2.748 1.047v0l3.953 8.56 3.188-1.251c0.133 0.353 0.206 0.542 0.217 0.567zM82.172 19.343v0l7.039 15.243c0.787-0.156 1.595-0.426 2.425-0.809v0c2.386-1.102 3.858-2.766 4.414-4.993 0.553-2.218 0.16-4.776-1.178-7.675v0c-1.533-3.32-3.219-5.248-5.059-5.783v0c-1.442-0.43-2.798-0.352-4.068 0.235-1.263 0.583-2.454 1.844-3.573 3.782z" fill="#ffffff" data-fill-palette-color="primary"></path><path d="M117.151 26.55c-2.741 0.589-5.128 0.276-7.163-0.937-2.027-1.208-3.389-3.436-4.085-6.682-0.696-3.24-0.346-5.98 1.05-8.219 1.404-2.234 3.47-3.643 6.198-4.229 2.734-0.587 5.122-0.275 7.163 0.937 2.046 1.204 3.417 3.426 4.113 6.666 0.697 3.247 0.344 5.987-1.06 8.221-1.396 2.239-3.468 3.653-6.216 4.243zM113.264 7.201c-1.965 0.422-3.422 1.625-4.371 3.61-0.947 1.991-1.107 4.449-0.479 7.374 0.63 2.931 1.736 5.042 3.319 6.332 1.585 1.296 3.36 1.733 5.325 1.311 1.972-0.424 3.431-1.631 4.379-3.622 0.942-1.983 1.1-4.434 0.473-7.353-0.625-2.912-1.729-5.023-3.309-6.333-1.586-1.303-3.365-1.742-5.337-1.319z" fill="#ffffff" data-fill-palette-color="primary"></path><path d="M137.087 5.527v0l0.073 3.216c2.053-3.16 4.097-4.79 6.133-4.89v0c0.161-0.004 0.323-0.007 0.484-0.011v0l2.264 0.231-0.993 2.433c-0.522-0.492-1.187-0.73-1.993-0.711v0c-1.955 0.071-3.912 1.417-5.87 4.037v0l0.304 13.367 3.422 0.124c0.001 0.027-0.008 0.229-0.027 0.606v0l-8.447 0.232c-0.005-0.242 0.004-0.43 0.028-0.565v0l2.08-0.33c0.214-0.032 0.318-0.222 0.31-0.572v0l-0.397-17.47c-0.058-0.187-0.141-0.279-0.248-0.277v0l-2.411-0.026 0.027-0.565c1.439-0.275 2.536-0.421 3.288-0.438 0.753-0.017 1.267 0.146 1.545 0.489 0.277 0.343 0.42 0.717 0.428 1.12z" fill="#ffffff" data-fill-palette-color="primary"></path><path d="M161.093 24.911v0l1.57 0.131 0.066 0.416c-0.027-0.004-0.219 0.011-0.576 0.044v0c-0.825 0.078-1.727 0.051-2.706-0.081v0c-0.899-0.176-1.704-0.441-2.416-0.795-0.712-0.354-1.333-0.981-1.862-1.88-0.53-0.899-0.708-1.985-0.536-3.258v0l1.895-14.009-2.028-0.275 0.363-0.276 1.797-0.124 0.839-3.793 2.266 0.103-0.541 3.997 4.826 0.653-0.097 0.719-4.826-0.653-1.804 13.33c-0.273 2.019-0.031 3.439 0.726 4.26 0.757 0.822 1.772 1.318 3.044 1.491z" fill="#ffffff" data-fill-palette-color="primary"></path><path d="M175.814 29.436l-8.197-2.252 0.191-0.533 2.086 0.291c0.24 0.039 0.408-0.109 0.502-0.446v0l4.863-17.372-1.971-0.552 0.398-0.224 1.758 0.115 1.324-4.729c0.5-1.787 1.443-2.912 2.83-3.375 1.386-0.464 2.856-0.478 4.41-0.043v0c1.029 0.288 1.867 0.676 2.511 1.164v0l-0.192 0.239c-0.6-0.252-1.126-0.441-1.579-0.568-0.447-0.125-0.902-0.183-1.366-0.173-0.464 0.01-0.975 0.118-1.536 0.324v0c-1.246 0.461-2.18 1.802-2.801 4.023v0l-1.065 3.806 4.69 1.313-0.196 0.699-4.69-1.313-5.015 17.916 3.247 1.119c-0.007 0.026-0.075 0.216-0.202 0.571z" fill="#ffffff" data-fill-palette-color="primary"></path><path d="M191.795 36.442c-2.528-1.211-4.225-2.919-5.092-5.124-0.864-2.196-0.578-4.791 0.857-7.786 1.432-2.989 3.385-4.941 5.86-5.858 2.477-0.908 4.974-0.759 7.49 0.447 2.522 1.209 4.219 2.916 5.092 5.124 0.882 2.204 0.607 4.801-0.826 7.79-1.435 2.995-3.391 4.946-5.868 5.853-2.474 0.917-4.978 0.768-7.513-0.446zM200.559 18.759c-1.813-0.869-3.701-0.808-5.666 0.181-1.968 0.995-3.598 2.842-4.891 5.539-1.296 2.704-1.712 5.05-1.248 7.039 0.46 1.995 1.597 3.427 3.409 4.295 1.819 0.872 3.712 0.81 5.68-0.186 1.959-0.992 3.583-2.834 4.873-5.525 1.287-2.686 1.706-5.03 1.258-7.035-0.458-2.001-1.596-3.437-3.415-4.308z" fill="#ffffff" data-fill-palette-color="primary"></path><path d="M212.545 48.846l-6.642-4.614 0.357-0.439 1.871 0.969c0.17 0.086 0.346 0.046 0.529-0.122v0l15.83-22.547c0.17-0.242 0.189-0.409 0.057-0.502v0l-1.959-1.474 0.357-0.439c1.52 0.771 2.539 1.339 3.056 1.702 0.517 0.363 0.791 0.769 0.821 1.217 0.03 0.448-0.071 0.838-0.302 1.168v0l-15.946 22.712 2.352 1.897c-0.015 0.022-0.142 0.179-0.381 0.472z" fill="#ffffff" data-fill-palette-color="primary"></path><path d="M233.758 43.018v0l-11.899 13.072 2.094 2.179c-0.018 0.02-0.164 0.16-0.437 0.42v0l-5.978-5.387c0.163-0.179 0.3-0.309 0.41-0.39v0l1.734 1.196c0.119 0.109 0.28 0.092 0.483-0.051v0l11.899-13.072c0.087-0.175 0.091-0.299 0.011-0.372v0l-1.728-1.682 0.41-0.391c1.232 0.794 2.126 1.444 2.683 1.952 0.557 0.507 0.817 0.98 0.78 1.419-0.036 0.44-0.19 0.808-0.462 1.107zM237.489 36.882c-0.398-0.362-0.593-0.767-0.586-1.214 0.008-0.448 0.197-0.875 0.568-1.283 0.371-0.408 0.784-0.632 1.239-0.673 0.455-0.04 0.881 0.12 1.279 0.483 0.398 0.362 0.608 0.78 0.63 1.255 0.022 0.475-0.161 0.926-0.55 1.354-0.389 0.428-0.817 0.638-1.284 0.631-0.467-0.007-0.899-0.191-1.296-0.553z" fill="#ffffff" data-fill-palette-color="primary"></path><path d="M233.852 71.797c-1.691-2.236-2.417-4.532-2.177-6.888 0.239-2.347 1.682-4.523 4.331-6.527 2.643-2 5.274-2.84 7.893-2.52 2.618 0.329 4.768 1.606 6.451 3.831 1.687 2.23 2.413 4.526 2.177 6.889-0.227 2.363-1.661 4.545-4.304 6.544-2.648 2.004-5.281 2.841-7.899 2.512-2.619-0.32-4.776-1.6-6.472-3.841zM249.747 60.099c-1.213-1.603-2.919-2.415-5.119-2.437-2.205-0.018-4.5 0.876-6.886 2.681-2.391 1.809-3.836 3.703-4.336 5.684-0.505 1.984-0.151 3.777 1.061 5.38 1.217 1.608 2.928 2.421 5.133 2.439 2.196 0.016 4.484-0.876 6.864-2.677 2.375-1.797 3.822-3.689 4.342-5.675 0.511-1.988 0.157-3.786-1.059-5.395z" fill="#ffffff" data-fill-palette-color="primary"></path><path d="M245.881 90.344v0c0.07 0.145 0.152 0.285 0.246 0.419v0c0.63 1.248 1.53 2.11 2.698 2.585 1.171 0.481 2.493 0.367 3.965-0.341v0c1.454-0.699 1.962-2.342 1.523-4.929v0c-0.188-1.073-0.352-2.158-0.491-3.255-0.14-1.097-0.032-2.137 0.323-3.12 0.358-0.993 1.082-1.751 2.172-2.276v0c1.551-0.746 3.074-0.751 4.569-0.016 1.504 0.739 2.693 2.017 3.568 3.834v0c0.65 1.351 1.065 2.834 1.244 4.448v0l0.061 0.776-4.171 2.007-0.587-0.568 3.01-1.628c0.439-1.942 0.432-3.382-0.019-4.321v0c-0.641-1.333-1.542-2.197-2.703-2.594-1.155-0.4-2.386-0.285-3.694 0.345v0c-0.751 0.361-1.197 0.986-1.337 1.874-0.14 0.888-0.116 1.868 0.073 2.942 0.188 1.073 0.347 2.157 0.478 3.25 0.127 1.102-0.018 2.165-0.437 3.186-0.419 1.022-1.221 1.818-2.409 2.39v0c-1.593 0.766-3.145 0.774-4.655 0.024-1.51-0.751-2.794-2.226-3.851-4.425-1.061-2.205-1.418-4.282-1.073-6.231v0l4.171-2.007 0.569 0.532-2.993 1.664c-0.467 0.642-0.719 1.513-0.757 2.613-0.035 1.106 0.134 2.047 0.507 2.822z" fill="#ffffff" data-fill-palette-color="primary"></path><path d="M17.794 179.352v0c-5.878 2.008-8.036 5.298-6.474 9.872v0c0.408 1.196 0.976 2.43 1.701 3.703 0.719 1.274 1.252 2.066 1.599 2.373v0l-0.303 0.423c-0.629-0.489-1.32-1.4-2.073-2.733-0.762-1.338-1.346-2.599-1.75-3.782-0.404-1.183-0.646-2.287-0.726-3.311-0.073-1.026 0.034-2.136 0.323-3.328 0.295-1.195 1.01-2.306 2.144-3.332 1.143-1.022 2.681-1.864 4.615-2.525v0c3.594-1.228 6.662-1.242 9.202-0.042v0c2.643 1.25 4.403 3.156 5.278 5.72 0.873 2.557 0.831 4.753-0.126 6.586-0.952 1.831-2.706 3.183-5.264 4.057v0c-0.547 0.187-1.147 0.345-1.798 0.475v0l-4.98-14.581c-0.314 0.079-0.77 0.22-1.368 0.425zM25.402 190.521v0c2.036-0.695 3.549-1.713 4.54-3.054 0.985-1.338 1.213-2.783 0.683-4.335v0c-0.689-2.017-2.154-3.416-4.397-4.199v0c-1.769-0.646-3.857-0.707-6.264-0.184v0l4.156 12.167c0.308-0.077 0.735-0.208 1.282-0.395z" fill="#ffffff" data-fill-palette-color="primary"></path><path d="M26.142 216.62v0l-0.067-0.113c-2.363-1.606-4.17-3.46-5.421-5.563v0c-1.956-3.287-1.697-5.804 0.777-7.549v0c0.16-0.126 0.314-0.234 0.464-0.323v0c1.901-1.131 3.917-0.641 6.049 1.47v0c1.201 1.296 3.172 3.741 5.913 7.335v0l3.267-1.943c1.04-0.619 1.856-1.272 2.448-1.961 0.592-0.688 0.982-1.288 1.171-1.799 0.183-0.508 0.232-1.057 0.146-1.648v0c-0.106-0.743-0.375-1.478-0.808-2.206-0.433-0.728-1.117-1.451-2.054-2.169v0c-1.374-1.021-2.81-1.805-4.309-2.353v0l-2.982 1.575-0.6-0.594 4.489-2.671 0.364 0.277c1.986 1.431 3.368 2.604 4.146 3.517 0.775 0.908 1.307 1.592 1.597 2.054 0.299 0.463 0.563 0.92 0.792 1.371 0.231 0.441 0.455 1.067 0.671 1.877 0.216 0.81 0.296 1.576 0.241 2.297-0.062 0.725-0.34 1.485-0.837 2.282-0.496 0.796-1.239 1.488-2.227 2.075v0l-11.344 6.749c-0.768 0.457-1.036 0.882-0.802 1.275v0l1.239 2.337-0.581 0.287c-1.018-1.264-1.852-2.442-2.501-3.534v0c-0.152-0.308-0.183-0.709-0.092-1.2 0.094-0.486 0.378-0.87 0.851-1.152zM21.64 211.261v0c1.09 1.831 2.889 3.389 5.397 4.674v0l6.118-3.64c-2.328-3.637-3.931-5.839-4.81-6.607-0.873-0.771-1.746-1.14-2.618-1.106-0.866 0.03-1.62 0.236-2.261 0.617v0c-0.127 0.076-0.251 0.15-0.372 0.222v0c-1.244 0.842-1.942 1.777-2.096 2.808-0.16 1.034 0.055 2.044 0.642 3.032z" fill="#ffffff" data-fill-palette-color="primary"></path><path d="M37.879 233.86v0c0.116 0.131 0.243 0.247 0.38 0.351v0c1.017 1.102 2.199 1.728 3.547 1.878 1.344 0.145 2.671-0.366 3.982-1.532v0c1.286-1.144 1.322-2.985 0.108-5.522v0c-0.51-1.049-0.998-2.118-1.463-3.206-0.47-1.085-0.665-2.189-0.585-3.313 0.075-1.129 0.595-2.122 1.56-2.98v0c1.376-1.224 2.948-1.678 4.714-1.36 1.763 0.312 3.361 1.275 4.796 2.886v0c1.072 1.205 1.938 2.613 2.596 4.223v0l0.29 0.781-3.706 3.298-0.769-0.409 2.628-2.568c-0.123-2.131-0.558-3.616-1.304-4.454v0c-1.05-1.18-2.23-1.804-3.541-1.871-1.31-0.067-2.546 0.416-3.705 1.448v0c-0.668 0.594-0.942 1.369-0.822 2.323 0.115 0.959 0.426 1.96 0.932 3.004 0.51 1.049 0.993 2.122 1.448 3.22 0.46 1.093 0.625 2.229 0.494 3.408-0.126 1.174-0.716 2.23-1.771 3.167v0c-1.421 1.265-3.017 1.731-4.788 1.399-1.776-0.327-3.535-1.47-5.278-3.429-1.738-1.954-2.72-3.987-2.944-6.1v0l3.706-3.297 0.742 0.379-2.594 2.605c-0.289 0.797-0.289 1.769 0.001 2.914 0.285 1.15 0.734 2.069 1.346 2.757z" fill="#ffffff" data-fill-palette-color="primary"></path><path d="M54.744 263.332l-7.333-5.398 0.288-0.54 3.528 1.981c0.182 0.093 0.405 0.008 0.668-0.257v0l6.556-6.423-1.15-0.854 6.188-20.402-0.008-0.056c0.09-0.369 0.024-0.669-0.198-0.901v0l-1.46-1.298c0.083-0.156 0.202-0.34 0.359-0.55v0l7.301 5.374c-0.016 0.022-0.134 0.202-0.353 0.542v0l-2.86-1.798-6.528 19.507 17.767-10.454c0.174-0.088 0.22-0.234 0.137-0.438-0.083-0.204-0.197-0.377-0.343-0.519v0l-1.444-1.236c0.077-0.16 0.194-0.346 0.35-0.556v0l6.37 4.682c-0.016 0.022-0.134 0.202-0.352 0.542v0l-3.319-1.975-19.526 11.081-7.205 6.959 2.885 2.407c-0.192 0.36-0.298 0.553-0.318 0.58z" fill="#ffffff" data-fill-palette-color="primary"></path><path d="M80.294 277.997l-8.303-3.738 0.287-0.533 2.172 0.656c0.25 0.084 0.453-0.045 0.609-0.387v0l12.201-26.787c0.04-0.233 0.008-0.373-0.097-0.421v0l-2.361-1.164 0.287-0.534c1.76 0.514 2.94 0.907 3.54 1.18 0.606 0.276 0.969 0.622 1.089 1.039 0.124 0.426 0.13 0.835 0.018 1.227v0c2.195-0.456 4.222-0.26 6.081 0.587v0c1.78 0.811 3.207 2.122 4.281 3.934v0c0.562 0.987 0.805 2.239 0.727 3.755-0.068 1.513-0.521 3.187-1.356 5.022v0c-1.586 3.481-3.644 5.705-6.175 6.672v0c-2.869 1.094-5.861 0.932-8.975-0.487v0c-0.918-0.418-1.843-0.917-2.776-1.497v0l-4.184 9.186 3.244 1.71c-0.192 0.356-0.294 0.549-0.309 0.58zM89.38 249.315v0l-7.461 16.381c0.675 0.529 1.456 0.996 2.344 1.399v0c2.569 1.17 4.952 1.203 7.146 0.098 2.192-1.099 3.999-3.209 5.421-6.33v0c1.622-3.561 2.006-6.278 1.153-8.15v0c-0.661-1.468-1.674-2.513-3.038-3.135-1.358-0.619-3.213-0.706-5.565-0.263z" fill="#ffffff" data-fill-palette-color="primary"></path><path d="M113.71 277.423c-2.942-0.612-5.145-1.952-6.61-4.022-1.466-2.063-1.837-4.835-1.113-8.317 0.723-3.475 2.255-6.006 4.596-7.592 2.342-1.587 4.977-2.075 7.906-1.466 2.929 0.609 5.132 1.95 6.61 4.021 1.478 2.072 1.856 4.846 1.133 8.321-0.724 3.482-2.256 6.013-4.596 7.592-2.342 1.587-4.984 2.074-7.926 1.463zM118.292 256.777c-2.113-0.439-4.064 0.109-5.853 1.647-1.789 1.537-3.011 3.878-3.665 7.024-0.653 3.139-0.485 5.684 0.504 7.633 0.987 1.956 2.537 3.154 4.649 3.594 2.113 0.439 4.064-0.109 5.853-1.646 1.789-1.537 3.009-3.868 3.658-6.995 0.65-3.126 0.483-5.674-0.501-7.643-0.984-1.969-2.533-3.174-4.645-3.614z" fill="#ffffff" data-fill-palette-color="primary"></path><path d="M138.158 260.136v0l-0.059 3.449c2.329-3.295 4.586-4.954 6.772-4.978v0c0.175 0.003 0.346 0.006 0.514 0.009v0l2.415 0.344-1.164 2.572c-0.542-0.561-1.243-0.848-2.103-0.863v0c-2.098-0.002-4.249 1.359-6.454 4.085v0l-0.245 14.317 3.656 0.284c0 0.027-0.018 0.242-0.051 0.645v0l-9.065-0.115c0.004-0.255 0.025-0.457 0.061-0.604v0l2.243-0.264c0.229-0.023 0.347-0.223 0.354-0.599v0l0.32-18.723c-0.05-0.203-0.133-0.305-0.247-0.307v0l-2.589-0.125 0.05-0.604c1.557-0.236 2.739-0.346 3.546-0.333 0.807 0.014 1.351 0.211 1.634 0.593 0.283 0.375 0.42 0.78 0.412 1.217z" fill="#ffffff" data-fill-palette-color="primary"></path><path d="M164.39 277.168v0l1.655-0.32 0.189 0.412c-0.033 0.005-0.227 0.075-0.581 0.212v0c-0.832 0.318-1.773 0.55-2.826 0.695v0c-0.974 0.073-1.879 0.032-2.714-0.125-0.837-0.163-1.658-0.633-2.465-1.411-0.805-0.771-1.302-1.843-1.491-3.215v0l-2.068-15.004-2.177 0.3 0.292-0.386 1.835-0.65-0.225-4.142 2.367-0.55 0.589 4.275 5.165-0.711 0.106 0.769-5.165 0.711 1.969 14.285c0.298 2.164 0.955 3.56 1.971 4.187 1.017 0.633 2.208 0.856 3.574 0.668z" fill="#ffffff" data-fill-palette-color="primary"></path><path d="M181.461 273.742l-8.763 2.474-0.123-0.594 2.086-0.893c0.245-0.096 0.318-0.325 0.217-0.688v0l-5.171-18.626-2.128 0.591 0.239-0.422 1.692-0.878-1.408-5.072c-0.53-1.911-0.291-3.46 0.719-4.647 1.015-1.196 2.351-2.024 4.01-2.484v0c1.114-0.309 2.099-0.419 2.954-0.329v0l-0.036 0.324c-0.691 0.101-1.279 0.219-1.764 0.354-0.486 0.135-0.936 0.336-1.35 0.605-0.422 0.264-0.832 0.646-1.23 1.147v0c-0.885 1.111-0.996 2.858-0.335 5.242v0l1.131 4.071 5.033-1.397 0.207 0.748-5.033 1.397 5.333 19.209 3.586-0.765c0.007 0.026 0.052 0.237 0.134 0.633z" fill="#ffffff" data-fill-palette-color="primary"></path><path d="M200.543 265.924c-2.715 1.287-5.281 1.547-7.698 0.781-2.414-0.76-4.382-2.747-5.906-5.961-1.52-3.207-1.825-6.15-0.915-8.828 0.91-2.678 2.717-4.658 5.42-5.94 2.703-1.281 5.269-1.542 7.698-0.781 2.429 0.761 4.403 2.745 5.924 5.952 1.523 3.213 1.828 6.156 0.915 8.829-0.91 2.678-2.723 4.661-5.438 5.948zM191.74 246.695c-1.95 0.924-3.175 2.539-3.674 4.844-0.499 2.305-0.061 4.909 1.316 7.813 1.374 2.898 3.043 4.826 5.007 5.784 1.967 0.964 3.926 0.985 5.876 0.06 1.95-0.924 3.175-2.539 3.674-4.844 0.499-2.305 0.065-4.9-1.303-7.785-1.368-2.885-3.038-4.816-5.011-5.793-1.973-0.977-3.935-1.003-5.885-0.079z" fill="#ffffff" data-fill-palette-color="primary"></path><path d="M224.19 251.62l-7.108 4.968-0.311-0.52 1.677-1.528c0.151-0.137 0.178-0.328 0.082-0.573v0l-16.801-24.278c-0.18-0.26-0.342-0.34-0.486-0.241v0l-2.21 1.432-0.311-0.521c1.343-1.248 2.291-2.064 2.844-2.446 0.558-0.386 1.069-0.511 1.532-0.374 0.463 0.137 0.817 0.383 1.062 0.737v0l16.916 24.444 2.788-1.659c0.015 0.022 0.124 0.209 0.326 0.559z" fill="#ffffff" data-fill-palette-color="primary"></path><path d="M221.188 228.013v0l12.575 14.159 2.568-1.983c0.018 0.02 0.151 0.19 0.398 0.509v0l-6.427 5.762c-0.17-0.191-0.293-0.351-0.372-0.479v0l1.481-1.719c0.131-0.116 0.131-0.287 0.002-0.515v0l-12.582-14.167c-0.174-0.115-0.304-0.135-0.389-0.059v0l-1.992 1.661-0.371-0.479c0.987-1.227 1.782-2.109 2.385-2.645 0.603-0.536 1.138-0.759 1.604-0.669 0.457 0.089 0.83 0.297 1.12 0.624zM215.08 223.337c-0.432 0.384-0.887 0.545-1.365 0.483-0.473-0.057-0.906-0.306-1.298-0.748-0.393-0.442-0.584-0.906-0.575-1.392 0.01-0.495 0.229-0.932 0.657-1.311 0.432-0.384 0.902-0.558 1.409-0.523 0.508 0.025 0.967 0.269 1.378 0.731 0.411 0.462 0.587 0.944 0.529 1.446-0.063 0.496-0.308 0.934-0.735 1.313z" fill="#ffffff" data-fill-palette-color="primary"></path><path d="M249.705 225.435c-1.845 2.372-4.019 3.759-6.522 4.163-2.498 0.408-5.15-0.481-7.956-2.665-2.801-2.18-4.398-4.67-4.792-7.471-0.393-2.801 0.329-5.382 2.167-7.744 1.837-2.361 4.011-3.749 6.522-4.162 2.511-0.414 5.167 0.469 7.969 2.648 2.807 2.184 4.404 4.674 4.791 7.472 0.393 2.801-0.334 5.388-2.179 7.759zM233.19 212.227c-1.325 1.703-1.692 3.696-1.101 5.979 0.592 2.283 2.155 4.411 4.692 6.385 2.531 1.969 4.889 2.939 7.075 2.911 2.191-0.024 3.949-0.888 5.274-2.591 1.325-1.703 1.692-3.696 1.1-5.98-0.592-2.283-2.147-4.405-4.667-6.366-2.52-1.961-4.881-2.933-7.083-2.917-2.202 0.016-3.965 0.876-5.29 2.579z" fill="#ffffff" data-fill-palette-color="primary"></path><path d="M262.986 202.993v0c0.078-0.156 0.139-0.317 0.184-0.483v0c0.644-1.354 0.785-2.684 0.422-3.991-0.366-1.301-1.334-2.343-2.904-3.125v0c-1.541-0.767-3.262-0.115-5.165 1.956v0c-0.783 0.864-1.594 1.715-2.431 2.552-0.831 0.84-1.783 1.432-2.856 1.777-1.076 0.35-2.191 0.238-3.347-0.337v0c-1.649-0.821-2.655-2.111-3.019-3.869-0.367-1.752-0.069-3.594 0.893-5.526v0c0.719-1.444 1.703-2.772 2.952-3.982v0l0.617-0.56 4.441 2.211-0.094 0.866-3.362-1.482c-1.932 0.908-3.148 1.865-3.648 2.869v0c-0.704 1.414-0.843 2.742-0.417 3.983 0.426 1.241 1.334 2.208 2.724 2.9v0c0.8 0.399 1.621 0.364 2.462-0.104 0.847-0.464 1.661-1.126 2.441-1.983 0.783-0.864 1.6-1.712 2.449-2.543 0.843-0.834 1.836-1.41 2.978-1.728 1.136-0.321 2.336-0.166 3.599 0.463v0c1.703 0.848 2.73 2.156 3.082 3.923 0.358 1.77-0.048 3.829-1.216 6.176-1.166 2.341-2.687 4.009-4.565 5.004v0l-4.441-2.212 0.076-0.83 3.384 1.438c0.848-0.028 1.749-0.391 2.704-1.087 0.961-0.693 1.647-1.452 2.057-2.276z" fill="#ffffff" data-fill-palette-color="primary"></path><path d="M1.386 141.532c0-6.382 5.174-11.556 11.556-11.556 6.382 0 11.556 5.174 11.556 11.556 0 6.382-5.174 11.556-11.556 11.556-6.382 0-11.556-5.174-11.556-11.556z" fill="#ffffff" data-fill-palette-color="primary"></path><path d="M255.502 141.532c0-6.382 5.174-11.556 11.556-11.556 6.382 0 11.556 5.174 11.556 11.556 0 6.382-5.174 11.556-11.556 11.556-6.382 0-11.556-5.174-11.556-11.556z" fill="#ffffff" data-fill-palette-color="primary"></path></g><g id="text-1"></g></svg></g></svg></g></svg></g><g></g></svg></g><defs></defs></svg><rect width="280" height="280" fill="none" stroke="none" visibility="hidden"></rect></g></svg></g></svg>